<svg width="41" height="43" viewBox="0 0 41 43" fill="none" xmlns="http://www.w3.org/2000/svg">
<path fill-rule="evenodd" clip-rule="evenodd" d="M2.5567 25.2061C2.58847 27.9887 3.72443 30.6447 5.71464 32.5897C7.70485 34.5347 10.3863 35.6094 13.1689 35.5773H18.3109C19.7091 35.5785 21.0462 36.1507 22.0124 37.1614L24.7526 40.0272C25.186 40.4663 25.7773 40.7135 26.3944 40.7135C27.0114 40.7135 27.6027 40.4663 28.0362 40.0272L32.2913 35.5773L33.6883 34.0188C33.9457 33.7394 34.226 33.4821 34.5265 33.2498C36.9947 31.3096 38.438 28.3455 38.4433 25.2061V12.6201C38.3743 6.82755 33.6237 2.18708 27.8311 2.25401H13.1689C7.3763 2.18708 2.62567 6.82755 2.5567 12.6201V25.2061Z" stroke="#262932" stroke-width="3.84499" stroke-linecap="round" stroke-linejoin="round"/>
<path d="M29.9733 23.5915C30.37 22.6066 29.8931 21.4867 28.9082 21.09C27.9233 20.6933 26.8034 21.1702 26.4067 22.1551L29.9733 23.5915ZM25.924 25.9647L27.1384 27.4551L27.1457 27.4491L25.924 25.9647ZM15.0247 25.8852L13.7801 27.3505L13.7888 27.3577L15.0247 25.8852ZM14.6048 22.0715C14.2243 21.0803 13.1123 20.5852 12.121 20.9657C11.1298 21.3462 10.6347 22.4583 11.0152 23.4495L14.6048 22.0715ZM14.7325 12.5072C14.7325 11.4454 13.8718 10.5847 12.81 10.5847C11.7483 10.5847 10.8875 11.4454 10.8875 12.5072H14.7325ZM10.8875 15.0705C10.8875 16.1323 11.7483 16.993 12.81 16.993C13.8718 16.993 14.7325 16.1323 14.7325 15.0705H10.8875ZM30.1125 12.5072C30.1125 11.4454 29.2518 10.5847 28.19 10.5847C27.1282 10.5847 26.2675 11.4454 26.2675 12.5072H30.1125ZM26.2675 15.0705C26.2675 16.1323 27.1282 16.993 28.19 16.993C29.2518 16.993 30.1125 16.1323 30.1125 15.0705H26.2675ZM26.4067 22.1551C26.042 23.0605 25.456 23.86 24.7023 24.4803L27.1457 27.4491C28.3961 26.42 29.3683 25.0937 29.9733 23.5915L26.4067 22.1551ZM24.7096 24.4743C22.2434 26.4838 18.6974 26.4579 16.2607 24.4127L13.7888 27.3577C17.6388 30.5893 23.2417 30.6302 27.1384 27.4551L24.7096 24.4743ZM16.2693 24.42C15.5265 23.789 14.9541 22.9814 14.6048 22.0715L11.0152 23.4495C11.5955 24.961 12.5462 26.3024 13.7801 27.3505L16.2693 24.42ZM10.8875 12.5072V15.0705H14.7325V12.5072H10.8875ZM26.2675 12.5072V15.0705H30.1125V12.5072H26.2675Z" fill="#262932"/>
</svg>
