<svg width="92" height="43" viewBox="0 0 92 43" fill="none" xmlns="http://www.w3.org/2000/svg">
<path d="M-0.403438 34.5H16.7726V29.94H4.61256V7.9H-0.403438V34.5ZM29.6005 35.032C36.2885 35.032 40.5445 31.232 40.5445 24.392V18.008C40.5445 11.168 36.2885 7.368 29.6005 7.368C22.9125 7.368 18.6565 11.168 18.6565 18.008V24.392C18.6565 31.232 22.9125 35.032 29.6005 35.032ZM29.6005 30.548C25.8765 30.548 23.6725 28.192 23.6725 24.544V17.856C23.6725 14.208 25.8765 11.852 29.6005 11.852C33.3245 11.852 35.5285 14.208 35.5285 17.856V24.544C35.5285 28.192 33.3245 30.548 29.6005 30.548ZM54.1402 35.032C58.2442 35.032 59.4602 33.246 59.9922 31.954H60.6762V34.5H65.3122V20.896H54.0642V25.152H60.3722V25.532C60.3722 28.496 58.7762 30.624 55.1282 30.624C51.4802 30.624 49.3522 28.192 49.3522 24.468V17.932C49.3522 14.208 51.4802 11.852 55.0522 11.852C58.6242 11.852 60.3722 14.056 60.3722 16.868V17.172H65.3122V17.02C65.3122 11.092 61.5882 7.368 55.0522 7.368C48.4402 7.368 44.3362 11.168 44.3362 18.008V24.392C44.3362 31.232 48.6682 35.032 54.1402 35.032ZM80.4404 35.032C87.1284 35.032 91.3844 31.232 91.3844 24.392V18.008C91.3844 11.168 87.1284 7.368 80.4404 7.368C73.7524 7.368 69.4964 11.168 69.4964 18.008V24.392C69.4964 31.232 73.7524 35.032 80.4404 35.032ZM80.4404 30.548C76.7164 30.548 74.5124 28.192 74.5124 24.544V17.856C74.5124 14.208 76.7164 11.852 80.4404 11.852C84.1644 11.852 86.3684 14.208 86.3684 17.856V24.544C86.3684 28.192 84.1644 30.548 80.4404 30.548Z" fill="white"/>
</svg>
