<svg width="92" height="29" viewBox="0 0 92 29" fill="none" xmlns="http://www.w3.org/2000/svg">
<path d="M-0.403412 27.5H16.7726V22.94H4.61259V0.899981H-0.403412V27.5Z" fill="white"/>
<path d="M29.6006 28.032C36.2886 28.032 40.5446 24.232 40.5446 17.392V11.008C40.5446 4.16798 36.2886 0.367981 29.6006 0.367981C22.9126 0.367981 18.6566 4.16798 18.6566 11.008V17.392C18.6566 24.232 22.9126 28.032 29.6006 28.032ZM29.6006 23.548C25.8766 23.548 23.6726 21.192 23.6726 17.544V10.856C23.6726 7.20798 25.8766 4.85198 29.6006 4.85198C33.3246 4.85198 35.5286 7.20798 35.5286 10.856V17.544C35.5286 21.192 33.3246 23.548 29.6006 23.548Z" fill="white"/>
<path d="M54.1402 28.032C58.2442 28.032 59.4602 26.246 59.9922 24.954H60.6762V27.5H65.3122V13.896H54.0642V18.152H60.3722V18.532C60.3722 21.496 58.7762 23.624 55.1282 23.624C51.4802 23.624 49.3522 21.192 49.3522 17.468V10.932C49.3522 7.20798 51.4802 4.85198 55.0522 4.85198C58.6242 4.85198 60.3722 7.05598 60.3722 9.86798V10.172H65.3122V10.02C65.3122 4.09198 61.5882 0.367981 55.0522 0.367981C48.4402 0.367981 44.3362 4.16798 44.3362 11.008V17.392C44.3362 24.232 48.6682 28.032 54.1402 28.032Z" fill="white"/>
<path d="M80.4404 28.032C87.1284 28.032 91.3844 24.232 91.3844 17.392V11.008C91.3844 4.16798 87.1284 0.367981 80.4404 0.367981C73.7524 0.367981 69.4964 4.16798 69.4964 11.008V17.392C69.4964 24.232 73.7524 28.032 80.4404 28.032ZM80.4404 23.548C76.7164 23.548 74.5124 21.192 74.5124 17.544V10.856C74.5124 7.20798 76.7164 4.85198 80.4404 4.85198C84.1644 4.85198 86.3684 7.20798 86.3684 10.856V17.544C86.3684 21.192 84.1644 23.548 80.4404 23.548Z" fill="white"/>
</svg>
