<svg width="92" height="43" viewBox="0 0 92 43" fill="none" xmlns="http://www.w3.org/2000/svg">
<path d="M33.2881 21.4406C33.2881 17.6717 36.2431 15.7121 40.3823 15.7121H45.4052V14.6817C45.4052 12.9806 44.3573 11.7232 42.0065 11.7232C39.6558 11.7232 38.6498 12.9073 38.3145 14.5699L34.0391 13.1273C34.9298 10.3574 37.3259 7.95773 42.0939 7.95773C46.8618 7.95773 49.9216 10.4308 49.9216 15.0101V26.7919H45.4786V24.3223C45.1293 25.2375 44.001 27.3123 40.1587 27.3123C36.2466 27.3123 33.2881 25.206 33.2881 21.4406ZM45.4052 19.5544V19.2051H40.7141C38.9676 19.2051 37.9442 19.9806 37.9442 21.3009C37.9442 22.6212 38.9921 23.5574 40.9726 23.5574C43.5714 23.5469 45.4052 21.9925 45.4052 19.5544V19.5544Z" fill="white"/>
<path d="M0 18.3458V17.298H4.8203V18.3458C4.8203 21.4581 6.86021 23.0194 10.196 23.0194C13.5318 23.0194 15.2154 21.5314 15.2154 19.4566C15.2154 17.3014 13.3222 16.5609 9.97594 15.8204L9.12715 15.6318C3.75146 14.4477 0.597296 12.6313 0.597296 7.88787C0.597296 3.14441 4.19157 0.322083 9.75588 0.322083C15.3202 0.322083 19.3581 3.14092 19.3581 8.77509V9.88935H14.5378V8.77509C14.5378 5.80955 12.7214 4.62194 9.75588 4.62194C6.79034 4.62194 5.43507 5.80955 5.43507 7.73768C5.43507 9.6658 6.88116 10.5949 9.9934 11.2586L10.8457 11.4472C16.3716 12.6313 20.0427 14.5595 20.0427 19.3064C20.0427 24.0534 16.2249 27.3123 10.217 27.3123C4.20904 27.3123 0 23.9765 0 18.3458Z" fill="white"/>
<path d="M72.5002 0.940338H77.1459V10.7207C77.7362 9.54005 79.839 8.17429 83.0839 8.17429C87.3593 8.17429 90.2131 11.318 90.2131 15.8588V26.7884H85.5674V16.25C85.5674 13.4766 84.1703 12.1109 81.6518 12.1109C78.8085 12.1109 77.1459 14.1054 77.1459 17.504V26.8093H72.5002V0.940338Z" fill="white"/>
<path d="M52.9186 21.3288L57.1905 20.2216C57.6725 22.8064 59.4086 23.6202 61.5463 23.6202C63.684 23.6202 64.7249 22.768 64.7249 21.6223C64.7249 20.4766 63.8097 19.9631 61.6231 19.5544L60.5752 19.3693C56.7329 18.6707 53.5543 17.2316 53.5543 13.6094C53.5543 9.98715 56.436 7.95773 60.7918 7.95773C64.896 7.95773 67.7009 9.95222 68.5497 12.9073L64.2289 14.2346C63.8237 12.3519 62.5662 11.6498 60.7918 11.6498C59.0173 11.6498 58.0603 12.317 58.0603 13.3963C58.0603 14.5804 59.1082 15.0624 60.7918 15.3524L61.8397 15.541C65.9753 16.278 69.2273 17.4586 69.2273 21.3009C69.2273 25.1432 66.1989 27.3228 61.5428 27.3228C56.7574 27.3123 53.5473 25.1676 52.9186 21.3288Z" fill="white"/>
<path d="M18.5791 39.9429H23.9443L24.3286 38.6016H20.5492L21.2582 35.7723L25.0272 35.8003L25.3695 34.459H21.5831L22.2677 31.71H26.0576L26.3929 30.3722H21.0277L18.5791 39.9429Z" fill="white"/>
<path d="M26.1938 39.9429H27.8774L29.6658 37.4664H29.8859L31.6883 39.9429H33.3579L30.7871 36.5373L33.316 33.2015H31.6498L29.8859 35.6221H29.6658L27.9019 33.2015H26.2497L28.7646 36.5373L26.1938 39.9429Z" fill="white"/>
<path d="M34.8739 42.6779H36.2711V39.0277H36.4911C36.8055 39.5726 37.4482 40.135 38.7616 40.135C40.4557 40.135 41.8773 38.8496 41.8773 36.6735V36.4709C41.8773 34.2948 40.4417 33.0093 38.7616 33.0093C37.4482 33.0093 36.8055 33.5717 36.4632 34.1725H36.2431V33.2014H34.8459L34.8739 42.6779ZM38.3669 38.902C37.1513 38.902 36.2711 38.0846 36.2711 36.635V36.5093C36.2711 35.0632 37.1618 34.2563 38.3669 34.2563C39.572 34.2563 40.4627 35.0632 40.4627 36.5093V36.635C40.4662 38.0846 39.5894 38.902 38.3599 38.902H38.3669Z" fill="white"/>
<path d="M46.722 40.135C47.3484 40.1698 47.9708 40.0164 48.5092 39.6946C49.0476 39.3728 49.4775 38.8972 49.7435 38.3291L48.5663 37.7283C48.4313 38.0941 48.1812 38.4062 47.8537 38.6178C47.5262 38.8294 47.139 38.9292 46.75 38.902C46.4885 38.9154 46.2269 38.875 45.9816 38.7833C45.7363 38.6916 45.5124 38.5505 45.3239 38.3687C45.1353 38.187 44.986 37.9685 44.8852 37.7268C44.7844 37.4851 44.7344 37.2252 44.738 36.9634H49.9216V36.429C49.9216 34.3786 48.6082 33.0093 46.6661 33.0093C44.7241 33.0093 43.3059 34.4065 43.3059 36.5023V36.6665C43.3059 38.7518 44.6717 40.135 46.722 40.135ZM44.752 35.8806C44.7912 35.4142 45.0127 34.9822 45.3685 34.6781C45.7242 34.3741 46.1854 34.2225 46.6522 34.2563C47.7001 34.2563 48.3987 34.8711 48.5 35.8806H44.752Z" fill="white"/>
<path d="M51.6157 39.9429H53.0129V35.9784C53.0129 34.9305 53.6556 34.445 54.5742 34.445H55.4335V33.1735H54.6266C53.9036 33.1735 53.4251 33.4355 53.205 33.9944H52.9884V33.2015H51.5912L51.6157 39.9429Z" fill="white"/>
<path d="M58.3083 33.2015H56.9006V39.9429H58.3083V33.2015Z" fill="white"/>
<path d="M63.4918 40.135C64.1182 40.1698 64.7405 40.0164 65.279 39.6946C65.8174 39.3728 66.2473 38.8972 66.5133 38.3291L65.3361 37.7283C65.2011 38.0941 64.951 38.4062 64.6235 38.6178C64.296 38.8294 63.9087 38.9292 63.5198 38.902C63.2582 38.9154 62.9967 38.875 62.7514 38.7833C62.5061 38.6916 62.2822 38.5505 62.0936 38.3687C61.905 38.187 61.7557 37.9685 61.655 37.7268C61.5542 37.4851 61.5041 37.2252 61.5078 36.9634H66.6914V36.429C66.6914 34.3786 65.378 33.0093 63.4359 33.0093C61.4938 33.0093 60.0722 34.4065 60.0722 36.5023V36.6665C60.0722 38.7518 61.4415 40.135 63.4918 40.135ZM61.5218 35.8806C61.5601 35.4139 61.7814 34.9813 62.1373 34.677C62.4932 34.3728 62.955 34.2216 63.422 34.2563C64.4699 34.2563 65.1685 34.8711 65.2698 35.8806H61.5218Z" fill="white"/>
<path d="M68.3855 39.9429H69.7827V36.5372C69.7827 35.0877 70.5476 34.2948 71.7108 34.2948C72.7377 34.2948 73.3525 34.8292 73.3525 36.0063V39.9429H74.7497V35.8945C74.7497 34.1481 73.6424 33.1002 72.1125 33.1002C70.8131 33.1002 70.2228 33.673 69.9643 34.2214H69.7443V33.2084H68.3645L68.3855 39.9429Z" fill="white"/>
<path d="M79.9298 40.135C81.8684 40.135 82.9512 38.9718 83.2656 37.5642L81.8963 37.2498C81.8511 37.7217 81.6221 38.1569 81.2587 38.4615C80.8954 38.766 80.4268 38.9155 79.9542 38.8775C78.7806 38.8775 77.8585 38.0567 77.8585 36.635V36.5093C77.8585 35.0877 78.7631 34.2703 79.9542 34.2703C80.1862 34.2493 80.42 34.2749 80.642 34.3456C80.8639 34.4163 81.0695 34.5307 81.2465 34.6821C81.4236 34.8334 81.5686 35.0187 81.673 35.2269C81.7774 35.4351 81.8391 35.6621 81.8544 35.8945L83.2237 35.6081C82.9617 34.1865 81.8684 33.0093 79.9298 33.0093C77.9912 33.0093 76.4682 34.3087 76.4682 36.4848V36.663C76.4682 38.8496 77.9737 40.135 79.9298 40.135Z" fill="white"/>
<path d="M87.9776 40.135C88.6039 40.1698 89.2263 40.0164 89.7647 39.6946C90.3032 39.3728 90.733 38.8972 90.999 38.3291L89.8254 37.7283C89.6892 38.0941 89.4384 38.406 89.1104 38.6175C88.7824 38.829 88.3949 38.9288 88.0055 38.902C87.7441 38.9154 87.4828 38.875 87.2376 38.7832C86.9925 38.6915 86.7689 38.5504 86.5806 38.3686C86.3922 38.1868 86.2433 37.9683 86.1429 37.7266C86.0425 37.4849 85.9929 37.2251 85.9971 36.9634H91.1771V36.429C91.1771 34.3786 89.8638 33.0093 87.9217 33.0093C85.9796 33.0093 84.5615 34.4065 84.5615 36.5023V36.6665C84.5615 38.7518 85.9272 40.135 87.9776 40.135ZM86.0075 35.8806C86.0468 35.4136 86.2688 34.981 86.6252 34.6768C86.9817 34.3727 87.4439 34.2215 87.9112 34.2563C88.9591 34.2563 89.6577 34.8711 89.7555 35.8806H86.0075Z" fill="white"/>
<path d="M28.4334 0.840027L21.9286 26.7918H27.2979L33.7996 0.840027H28.4334Z" fill="white"/>
</svg>
